<svg id="Strom_icon" data-name="Strom icon" xmlns="http://www.w3.org/2000/svg" width="291.18" height="200.329" viewBox="0 0 291.18 200.329">
  <ellipse id="Ellipse_14" data-name="Ellipse 14" cx="55.298" cy="51.682" rx="55.298" ry="51.682" transform="translate(0 40.377)" fill="#494656"/>
  <ellipse id="Ellipse_15" data-name="Ellipse 15" cx="55.298" cy="51.682" rx="55.298" ry="51.682" transform="translate(40.61 17.766)" fill="#494656"/>
  <circle id="Ellipse_16" data-name="Ellipse 16" cx="55.298" cy="55.298" r="55.298" transform="translate(89.86 26.775)" fill="#494656"/>
  <ellipse id="Ellipse_17" data-name="Ellipse 17" cx="55.298" cy="51.682" rx="55.298" ry="51.682" transform="translate(102.82)" fill="#494656"/>
  <ellipse id="Ellipse_18" data-name="Ellipse 18" cx="55.298" cy="51.682" rx="55.298" ry="51.682" transform="translate(158.118 27.456)" fill="#494656"/>
  <ellipse id="Ellipse_19" data-name="Ellipse 19" cx="55.298" cy="51.682" rx="55.298" ry="51.682" transform="translate(180.583 57.335)" fill="#494656"/>
  <circle id="Ellipse_20" data-name="Ellipse 20" cx="55.298" cy="55.298" r="55.298" transform="translate(110.596 50.104)" fill="#494656"/>
  <ellipse id="Ellipse_21" data-name="Ellipse 21" cx="55.298" cy="51.682" rx="55.298" ry="51.682" transform="translate(40.61 57.335)" fill="#494656"/>
  <path id="Path_59" data-name="Path 59" d="M3701.846-562.351,3640.5-623.7l22.465-10.368,26.785,5.184,9.5-22.465L3661.237-688.5" transform="translate(-3498.366 756.316)" fill="none" stroke="#fd0" stroke-width="18"/>
  <path id="Path_60" data-name="Path 60" d="M3623.881-674.4l31.24,25.868L3630.327-626.3l17.273,36.2" transform="translate(-3555.725 763.903)" fill="none" stroke="#fd0" stroke-width="15"/>
</svg>
